<?xml version="1.0"?>
<svg xmlns="http://www.w3.org/2000/svg" xmlns:xlink="http://www.w3.org/1999/xlink" xmlns:svgjs="http://svgjs.com/svgjs" version="1.1" x="0" y="0" viewBox="0 0 512 512" style="enable-background:new 0 0 512 512" xml:space="preserve" class=""><g><g xmlns="http://www.w3.org/2000/svg"><path d="m437 361c-36.22 0-66.522 25.808-73.491 60h-213.509v-90h244.58c6.192 17.458 22.865 30 42.42 30 24.813 0 45-20.187 45-45s-20.187-45-45-45c-19.555 0-36.228 12.542-42.42 30h-259.58c-8.284 0-15 6.716-15 15v120c0 8.284 6.716 15 15 15h362c8.284 0 15-6.716 15-15 0-41.355-33.645-75-75-75zm0-60c8.271 0 15 6.729 15 15s-6.729 15-15 15-15-6.729-15-15 6.729-15 15-15zm-42.43 120c6.19-17.461 22.873-30 42.43-30s36.239 12.539 42.43 30z" fill="#ffffff" data-original="#000000" style="" class=""/><circle cx="316" cy="376" r="15" fill="#ffffff" data-original="#000000" style="" class=""/><circle cx="256" cy="376" r="15" fill="#ffffff" data-original="#000000" style="" class=""/><circle cx="196" cy="376" r="15" fill="#ffffff" data-original="#000000" style="" class=""/><path d="m0 226c0 8.284 6.716 15 15 15h362c8.284 0 15-6.716 15-15v-120c0-8.284-6.716-15-15-15h-259.58c-6.192-17.459-22.865-30-42.42-30-24.813 0-45 20.187-45 45s20.187 45 45 45c19.555 0 36.228-12.542 42.42-30h244.58v90h-213.509c-6.968-34.192-37.271-60-73.491-60-41.355 0-75 33.645-75 75zm75-105c-8.271 0-15-6.729-15-15s6.729-15 15-15 15 6.729 15 15-6.729 15-15 15zm0 60c19.557 0 36.239 12.539 42.43 30h-84.86c6.191-17.461 22.873-30 42.43-30z" fill="#ffffff" data-original="#000000" style="" class=""/><circle cx="196" cy="166" r="15" fill="#ffffff" data-original="#000000" style="" class=""/><circle cx="256" cy="166" r="15" fill="#ffffff" data-original="#000000" style="" class=""/><circle cx="316" cy="166" r="15" fill="#ffffff" data-original="#000000" style="" class=""/></g></g></svg>
